PathFileType	4	(X/Y/Z)	..\data\2014030\dynamic\2014030_C5_02.trc
DataRate	CameraRate	NumFrames	NumMarkers	Units	OrigDataRate	OrigDataStartFrame	OrigNumFrames
100.000000	100.000000	4	52	mm	100.000000	58	155
Frame#	Time	L_IAS			L_IPS			R_IPS			R_IAS			L_FTC			L_FLE			L_FME			L_FAX			L_TTC			L_FAL			L_TAM			L_FCC			L_FM1			L_FM2			L_FM5			R_FTC			R_FLE			R_FME			R_FAX			R_TTC			R_FAL			R_TAM			R_FCC			R_FM1			R_FM2			R_FM5			CV7			TV10			SXS			SJN			L_SIA			L_SRS			L_SAA			L_SAE			L_HLE			L_HME			L_UOA			L_RSP			L_UHE			L_HM2			L_HM5			R_SIA			R_SRS			R_SAA			R_SAE			R_HLE			R_HME			R_UOA			R_RSP			R_UHE			R_HM2			R_HM5			
		X1	Y1	Z1	X2	Y2	Z2	X3	Y3	Z3	X4	Y4	Z4	X5	Y5	Z5	X6	Y6	Z6	X7	Y7	Z7	X8	Y8	Z8	X9	Y9	Z9	X10	Y10	Z10	X11	Y11	Z11	X12	Y12	Z12	X13	Y13	Z13	X14	Y14	Z14	X15	Y15	Z15	X16	Y16	Z16	X17	Y17	Z17	X18	Y18	Z18	X19	Y19	Z19	X20	Y20	Z20	X21	Y21	Z21	X22	Y22	Z22	X23	Y23	Z23	X24	Y24	Z24	X25	Y25	Z25	X26	Y26	Z26	X27	Y27	Z27	X28	Y28	Z28	X29	Y29	Z29	X30	Y30	Z30	X31	Y31	Z31	X32	Y32	Z32	X33	Y33	Z33	X34	Y34	Z34	X35	Y35	Z35	X36	Y36	Z36	X37	Y37	Z37	X38	Y38	Z38	X39	Y39	Z39	X40	Y40	Z40	X41	Y41	Z41	X42	Y42	Z42	X43	Y43	Z43	X44	Y44	Z44	X45	Y45	Z45	X46	Y46	Z46	X47	Y47	Z47	X48	Y48	Z48	X49	Y49	Z49	X50	Y50	Z50	X51	Y51	Z51	X52	Y52	Z52	

59	0.58	560.3965454101564	907.891784667969	-359.6878356933594	354.8910827636719	954.0864868164065	-295.8315734863282	351.6618041992188	958.9866943359377	-180.2525177001953	552.1589355468751	915.0367431640627	-103.131591796875	490.5954895019532	841.2276000976565	-411.1997985839845	616.0656127929689	464.1150512695314	-348.3034667968751	613.3508300781251	467.3619689941407	-228.3327026367188	623.0847167968751	401.5412597656251	-346.8312683105469	674.8007812500001	420.2216186523439	-286.0575561523438	677.5472412109376	68.58470916748048	-322.7008361816407	684.5914306640626	86.43437957763673	-233.044906616211	638.9182128906251	15.31918907165528	-282.9953308105469	819.5522460937502	55.01590728759767	-233.7896270751954	823.2196044921877	62.44327545166017	-290.3092651367188	797.9763183593752	30.93496894836426	-333.8760070800782	454.2296752929689	835.8326416015627	-52.81570434570314	381.3607177734376	448.8831176757814	-117.4116134643555	391.114959716797	448.2705078125001	-239.5982513427735	344.5030822753907	399.0284118652345	-114.8498840332032	393.7938842773439	366.7353515625001	-169.3541107177735	135.6971435546875	127.8172988891602	-136.5971984863282	157.208984375	128.5917663574219	-226.4391479492188	70.05993652343751	109.2205886840821	-185.14111328125	219.7422637939454	20.34451866149903	-229.3905334472657	233.2876739501954	32.50866317749024	-170.3834686279297	185.173583984375	18.14956665039063	-120.1551971435547	423.1788940429689	1411.214599609375	-222.0137329101563	351.9837951660157	1182.26611328125	-245.5312652587891	589.2561035156251	1103.996826171875	-255.5826416015626	551.2672119140626	1322.700317382813	-249.2402801513672	339.5102539062501	1213.244018554688	-330.9715881347657	372.6687316894532	1346.037353515625	-339.1373596191407	416.2239990234376	1352.414428710938	-409.4866943359376	468.3016662597657	1362.448974609375	-431.7442321777345	366.4274902343751	1064.341430664063	-496.4692687988282	320.9157409667969	1073.63623046875	-436.4131774902345	325.3970642089844	1050.94189453125	-475.3875732421876	372.6473083496094	818.0386962890627	-441.8301391601564	344.2527160644532	832.362243652344	-508.8878173828126	356.7575073242188	730.7694091796876	-435.0639648437501	307.8312988281251	770.8428955078127	-518.1673583984376	349.1975708007813	1205.471069335938	-150.2301940917969	391.6424560546876	1327.614868164063	-123.771713256836	439.1552734375001	1327.801635742188	-72.68770599365236	492.3512268066407	1332.46533203125	-57.31074905395509	543.2933349609376	1015.115112304688	13.44097995758057	496.4202880859376	988.8950195312502	-53.2621421813965	513.8774414062501	971.262634277344	-11.55381488800049	703.4758300781251	849.9027099609377	-69.59667968750001	674.0183105468751	819.8626098632815	-4.753593921661378	778.7702636718752	809.6904296875002	-72.40182495117189	721.9340820312501	766.4512939453126	-1.566640734672547	
60	0.59	575.2555541992189	909.6712646484377	-360.6070556640626	369.9814758300782	955.0275878906252	-297.4282836914063	365.7540283203126	959.045837402344	-181.85693359375	565.9023437500001	914.8987426757815	-104.9502182006836	506.5074768066407	843.307067871094	-412.7940979003907	628.7357788085939	464.4322204589845	-349.0924377441407	624.8544921875001	468.1014404296876	-229.3844451904297	634.4915771484376	401.6114501953126	-347.4465637207032	685.6944580078126	419.2073669433595	-286.2328186035157	679.3825683593751	67.13211822509767	-322.3369445800782	686.2565917968751	84.76369476318361	-232.5117645263672	638.3613891601564	15.34189224243164	-282.9365844726563	820.5732421875002	48.76924514770509	-232.5257873535157	824.7581176757815	56.406795501709	-288.9483337402344	798.7855224609377	26.17465400695801	-333.2350463867188	468.886688232422	834.8216552734377	-55.063777923584	401.9316406250001	447.596649169922	-116.0365600585938	414.9104614257814	444.9097595214845	-238.0324096679688	364.3742980957032	399.2892456054689	-112.7297744750977	413.9288940429689	364.9998168945313	-165.7158660888672	146.4544067382813	135.8114624023438	-133.1781921386719	169.0498504638672	135.0648040771485	-222.4945373535157	80.90032958984376	121.7879180908203	-182.282470703125	221.3807067871094	23.51782608032227	-228.0871734619141	234.9748992919922	33.28181457519532	-169.6134338378907	187.3280639648438	21.06188392639161	-119.6257553100586	436.8558349609376	1411.537109375	-223.9149780273438	366.2624511718751	1182.31787109375	-247.2590637207032	604.0635986328126	1104.949462890625	-256.6600952148438	565.1115112304689	1323.28662109375	-250.7544403076172	354.3150939941407	1213.065307617188	-332.9229431152344	386.8060607910157	1346.02001953125	-341.0790405273438	430.2231750488282	1352.583618164063	-411.4227905273439	482.7971801757814	1362.62353515625	-433.3868408203126	382.7951354980469	1063.796752929688	-498.2055969238282	336.9582214355469	1072.965454101563	-438.4531555175782	341.7545471191407	1050.283325195313	-477.3281250000001	389.4617919921876	817.6508789062502	-443.3211669921876	361.6646423339844	831.7874145507815	-510.661346435547	373.3443298339844	730.4627075195314	-436.3533020019532	325.2188415527344	770.1607055664065	-520.0763549804689	362.9053344726563	1205.835205078125	-151.9829254150391	405.2052001953126	1328.017944335938	-125.6383666992188	452.6264648437501	1328.21142578125	-74.40706634521486	505.7829895019532	1332.865234375	-58.89289474487306	555.1138916015626	1015.154541015625	11.83868980407715	507.8493041992189	989.392272949219	-54.94923782348634	524.9635009765626	971.7178955078127	-13.06218719482422	713.4578247070314	847.9614868164065	-70.28271484375001	683.2890625000001	818.4251708984377	-5.389863967895509	788.2227783203127	806.8037719726565	-72.60378265380861	730.5039062500001	764.5906982421876	-1.834698557853699	
61	0.6	589.8809814453126	911.7779541015627	-361.5440368652344	384.9054260253907	956.112976074219	-299.0435180664063	379.6409912109376	959.224304199219	-183.4992065429688	579.4613037109376	914.8912353515627	-106.8393096923828	522.2305908203126	845.592468261719	-414.4414367675782	640.6879272460939	464.7655639648439	-349.9089050292969	635.4027709960939	468.817840576172	-230.4188537597657	645.2506103515626	401.7499084472657	-348.0993041992188	695.8995361328126	418.3159179687501	-286.3897094726563	681.1978759765626	66.0392303466797	-322.0058288574219	687.8153686523439	83.5144500732422	-232.0235290527344	637.9992675781251	15.61638736724854	-282.9377746582032	821.447937011719	43.32580184936524	-231.2052001953126	826.2672119140627	51.23221588134767	-287.5033264160157	799.7182617187502	22.28131484985352	-332.7044067382813	483.4165649414064	833.9041137695315	-57.37721633911134	423.9676513671876	446.2551269531251	-114.4367370605469	440.064178466797	441.7003784179689	-236.3140106201172	385.892547607422	399.5372009277345	-110.4466857910157	435.4950256347657	363.5332946777344	-162.0579833984375	159.1511993408203	144.2764587402344	-129.846435546875	182.7470397949219	141.9085388183594	-218.6163024902344	93.81943511962892	134.8200378417969	-179.478759765625	224.6631927490235	27.25571823120118	-226.2395477294922	238.1555480957032	34.63092803955079	-168.3543853759766	190.9842376708985	25.11416816711426	-118.6370925903321	450.5370178222657	1412.043823242188	-225.7896728515626	380.4495239257813	1182.59228515625	-248.9855957031251	618.7556762695314	1106.000122070313	-257.5782470703126	578.9522705078126	1323.979248046875	-252.1737823486329	369.1450195312501	1213.108764648438	-334.9336853027344	401.0112304687501	1346.209716796875	-343.0295715332032	444.3148803710939	1352.942749023438	-413.3504028320314	497.481658935547	1362.935668945313	-434.9577941894532	399.6077880859376	1063.330444335938	-500.0270080566407	353.3859558105469	1072.326049804688	-440.6448364257814	358.5667724609376	1049.65087890625	-479.4094848632814	407.019744873047	817.3693847656252	-444.8416442871095	379.8926391601563	831.2634887695315	-512.4898681640626	390.8021850585939	730.2329711914064	-437.687957763672	343.5382080078126	769.4656372070315	-522.0948486328126	376.5274047851563	1206.423828125	-153.7287750244141	418.7139282226564	1328.629272460938	-127.4795074462891	466.0156860351564	1328.81689453125	-76.0830535888672	519.1333007812501	1333.451416015625	-60.40686798095705	566.4791870117189	1015.3740234375	10.3034610748291	518.9084472656251	990.1136474609377	-56.58638763427736	535.5967407226564	972.3928222656252	-14.496976852417	722.7762451171876	845.8481445312502	-70.8231887817383	691.7906494140626	816.9234619140627	-5.861844062805177	796.8455200195315	803.4392700195315	-72.65148162841798	738.1136474609376	762.5360717773439	-1.911653876304627	
62	0.61	604.2335815429689	914.099060058594	-362.5068054199219	399.6093139648439	957.2994384765627	-300.6817932128907	393.3067626953126	959.522155761719	-185.1830291748047	592.8134155273439	915.0069580078127	-108.7422943115235	537.6460571289064	847.9729003906252	-416.1175842285157	651.8626708984376	465.0730285644532	-350.7345275878907	645.0761718750001	469.4698181152345	-231.4132385253907	655.2955322265626	401.9124450683595	-348.7749633789063	705.3983764648439	417.5199279785157	-286.5485839843751	683.0242309570314	65.29090118408205	-321.7081298828126	689.3317871093751	82.66788482666017	-231.5892791748047	637.9212646484376	16.08743286132813	-282.9830017089844	822.2644042968752	38.76728439331055	-229.9001922607422	827.8098144531252	46.98748397827149	-286.0530395507813	800.8120117187502	19.28446769714356	-332.3370971679688	497.7485961914064	833.136169433594	-59.69623184204103	447.347381591797	444.9564514160157	-112.6707000732422	466.3356933593751	438.8389587402345	-234.5204010009766	408.9459838867189	399.8123779296876	-108.0885314941407	458.3556518554689	362.4235839843751	-158.5314025878907	173.8060913085938	153.1056671142578	-126.7412338256836	198.311996459961	149.0277862548828	-214.9517517089844	108.8247985839844	148.0125579833985	-176.8794555664063	230.0145416259766	31.49533081054688	-223.7652893066407	243.2444763183594	36.6470069885254	-166.4927520751953	196.5191650390626	30.36086082458497	-117.1095275878907	464.2018127441407	1412.7158203125	-227.6149291992188	394.5111083984376	1183.078735351563	-250.7029113769532	633.2728881835939	1107.0947265625	-258.3297729492188	592.7676391601564	1324.744384765625	-253.4836425781251	383.9435729980469	1213.376953125	-336.9880676269532	415.2550048828126	1346.603271484375	-344.9723815917969	458.4863586425782	1353.474243164063	-415.2510681152345	512.3214111328126	1363.367065429688	-436.4426574707032	416.8464965820314	1062.934204101563	-501.9220275878907	370.1723937988282	1071.704345703125	-442.9846191406251	375.8108825683594	1049.036865234375	-481.6250000000001	425.2981262207032	817.1854248046877	-446.384735107422	398.9063415527345	830.7851562500002	-514.3585205078126	409.1320800781251	730.0680541992189	-439.0669250488282	362.7712402343751	768.7507324218752	-524.2043457031251	390.040740966797	1207.212768554688	-155.4610443115235	432.1453247070314	1329.42626953125	-129.2793273925782	479.2989807128907	1329.595092773438	-77.70313262939455	532.3779296875001	1334.201904296875	-61.83798599243165	577.3704223632814	1015.765380859375	8.850746154785158	529.6076660156251	991.0376586914065	-58.15393066406251	545.7884521484376	973.270446777344	-15.8487138748169	731.4365844726564	843.5946044921877	-71.22901916503908	699.5593872070314	815.3855590820315	-6.174678325653078	804.6468505859377	799.6660156250002	-72.57904052734376	744.8286132812501	760.3257446289064	-1.818204760551453	
